<?xml version="1.0" encoding="utf-8"?>
<!-- Generator: Adobe Illustrator 28.2.0, SVG Export Plug-In . SVG Version: 6.00 Build 0)  -->
<svg version="1.1" id="Layer_1" xmlns="http://www.w3.org/2000/svg" xmlns:xlink="http://www.w3.org/1999/xlink" x="0px" y="0px"
	 viewBox="0 0 1236.1 324.3" style="enable-background:new 0 0 1236.1 324.3;" xml:space="preserve">
<g>
	<path d="M189.9,72.1h37.6V269h-37.6V72.1z"/>
	<path d="M301.7,138.2c14-11.8,26.9-18.6,43-18.6c27.1,0,49.9,18.6,49.9,49.9V269h-36.5v-68.8c0-28.8-2.5-47.2-24.7-47.2
		c-10.1,0-18.9,4.9-24.7,14c-7.4,11.8-7.1,24.9-7.1,40v62h-36.5V123.4h36.5V138.2z"/>
	<path d="M412.7,123.4h13.7c0-7.4,0-16.4,2.7-25.5c6.9-22.2,26-34.5,53.2-34.5c19.2,0,34,5.8,44.1,17.3
		c10.4,11.8,11.8,24.7,11.8,42.8V269h-36.5V120.7c0-17.3-5.8-26.6-19.5-26.6c-14.8,0-19.5,11-19.5,29.3h21.4v30.7h-21.4V269h-36.5
		V154.1h-13.7V123.4z"/>
	<path d="M572.6,123.4H609v75.9c0,26,8.2,39.8,27.4,39.8c19.5,0,27.4-13.4,27.4-38.1v-77.6h36.5v67.2c0,26.9-1.6,46.6-17,63.6
		c-11.5,12.9-26.6,18.4-46.9,18.4c-35.1,0-56.7-17.8-62.5-51.8c-1.9-11.8-1.4-18.6-1.4-30.7V123.4z"/>
	<path d="M877.7,72.1h37.8L991.4,269h-38.9l-15.4-40.6h-80.3L840.7,269h-38.9L877.7,72.1z M896.9,124.2l-26,67.4h52.1L896.9,124.2z"
		/>
	<path d="M1017.8,72.1h37.6V269h-37.6V72.1z"/>
</g>
</svg>
