<?xml version="1.0" encoding="utf-8"?>
<!-- Generator: Adobe Illustrator 28.2.0, SVG Export Plug-In . SVG Version: 6.00 Build 0)  -->
<svg version="1.1" id="Layer_1" xmlns="http://www.w3.org/2000/svg" xmlns:xlink="http://www.w3.org/1999/xlink" x="0px" y="0px"
	 viewBox="0 0 1236.1 324.3" style="enable-background:new 0 0 1236.1 324.3;" xml:space="preserve">
<g>
	<path d="M36.7,261.5h45.7l-12.6,12.6V60.9l12.6,12.6H36.7V41.4h107.3v32.1H99l12.2-12.6v213.2L99,261.5h45v32.1H36.7V261.5z"/>
	<path d="M178.6,99.8H219V143h-14l92.9-43.2h40.3v193.8h-40.3V123.2l15.1,4.7l-108.4,50.1l14.4-24.1v139.7h-40.3V99.8z"/>
	<path d="M392.2,115.2l16.2,16.2h-42.5V99.8h42.5L392.2,116v-90h27.7h127.9V278l-16.6-16.2h42.1v31.7h-40.7h-25.2V41.4l16.2,16.2
		H415.3l16.2-16.2V116l-16.2-16.2h63v31.7h-61.9l16.2-16.2v178.3h-40.3V115.2z"/>
	<path d="M605.8,99.8h40.3v170.4l-15.1-4.7L739,215l-14,24.1V99.8h40.3v193.8h-36l-4.3-43.2h13.7l-92.6,43.2h-40.3V99.8z"/>
	<path d="M933.5,41.4h67.4l75.3,252.1h-41.4l-21.2-69.9l15.5,1.1l-123.9,23.8l14-15.8l-16.6,60.9h-42.5L933.5,41.4z M913,212.1
		l106.6-19.1l-7.6,22L970.6,72.4h-7.6l-43.9,150.9L913,212.1z"/>
	<path d="M1093.5,261.5h45.7l-12.6,12.6V60.9l12.6,12.6h-45.7V41.4h107.3v32.1h-45l12.2-12.6v213.2l-12.2-12.6h45v32.1h-107.3V261.5
		z"/>
</g>
</svg>
