<?xml version="1.0" encoding="utf-8"?>
<!-- Generator: Adobe Illustrator 28.2.0, SVG Export Plug-In . SVG Version: 6.00 Build 0)  -->
<svg version="1.1" id="Layer_1" xmlns="http://www.w3.org/2000/svg" xmlns:xlink="http://www.w3.org/1999/xlink" x="0px" y="0px"
	 viewBox="0 0 1236.1 324.3" style="enable-background:new 0 0 1236.1 324.3;" xml:space="preserve">
<g>
	<path d="M151.8,268.4V58.1h34.9v210.3H151.8z"/>
	<path d="M291.5,58.1h34.9v210.3h-34.9V136.9L256.3,102v166.4h-34.9V58.1h34.9l35.3,34.9V58.1z"/>
	<path d="M396,90.9V162h40.7v33H396v73.4h-34.9V58.1h93.4v32.7H396z"/>
	<path d="M557.4,215.7h35.3v52.7H487.2V58.1h35.3v177.2h34.9V215.7z"/>
	<path d="M695.9,58.1h35.3v210.3H625.7V58.1h35.3v177.2h34.9V58.1z"/>
	<path d="M871.2,58.1h105.4v210.3h-35.3V195h-34.9v73.4h-35.3V58.1z M941.4,162V90.9h-34.9V162H941.4z"/>
	<path d="M1011.3,268.4V58.1h34.9v210.3H1011.3z"/>
</g>
</svg>
